<?xml version="1.0" encoding="UTF-8" standalone="no"?><svg xmlns="http://www.w3.org/2000/svg" xmlns:xlink="http://www.w3.org/1999/xlink" fill="#000000" height="279.2" preserveAspectRatio="xMidYMid meet" version="1" viewBox="0.0 0.0 658.3 279.2" width="658.3" zoomAndPan="magnify"><g id="change1_4"><path d="M34.47,213.94C15.47,213.94,0,198.48,0,179.47V99.72c0-19.01,15.47-34.47,34.47-34.47 c19.01,0,34.48,15.47,34.48,34.47v79.75C68.95,198.48,53.48,213.94,34.47,213.94z M34.47,80.24C23.74,80.24,15,88.98,15,99.72 v79.75c0,10.74,8.74,19.47,19.47,19.47c10.74,0,19.48-8.74,19.48-19.47V99.72C53.95,88.98,45.21,80.24,34.47,80.24z" fill="#ffffff"/></g><g id="change1_6"><path d="M88.42,279.19c-19.01,0-34.47-15.46-34.47-34.47V34.47C53.95,15.47,69.42,0,88.42,0 s34.47,15.47,34.47,34.47v210.24C122.9,263.72,107.43,279.19,88.42,279.19z M88.42,15c-10.74,0-19.47,8.74-19.47,19.47v210.24 c0,10.74,8.74,19.47,19.47,19.47s19.47-8.74,19.47-19.47V34.47C107.9,23.74,99.16,15,88.42,15z" fill="#ffffff"/></g><g id="change1_7"><path d="M142.37,279.19c-19.01,0-34.48-15.46-34.48-34.47V34.47C107.9,15.47,123.36,0,142.37,0 c19.01,0,34.47,15.47,34.47,34.47v210.24C176.85,263.72,161.38,279.19,142.37,279.19z M142.37,15c-10.74,0-19.48,8.74-19.48,19.47 v210.24c0,10.74,8.74,19.47,19.48,19.47c10.74,0,19.47-8.74,19.47-19.47V34.47C161.85,23.74,153.11,15,142.37,15z" fill="#ffffff"/></g><g id="change1_3"><path d="M623.82,213.94c-19.01,0-34.48-15.46-34.48-34.47V99.72c0-19.01,15.47-34.47,34.48-34.47 s34.47,15.47,34.47,34.47v79.75C658.3,198.48,642.83,213.94,623.82,213.94z M623.82,80.24c-10.74,0-19.48,8.74-19.48,19.47v79.75 c0,10.74,8.74,19.47,19.48,19.47c10.74,0,19.47-8.74,19.47-19.47V99.72C643.3,88.98,634.56,80.24,623.82,80.24z" fill="#ffffff"/></g><g id="change1_1"><path d="M569.87,279.19c-19.01,0-34.47-15.46-34.47-34.47V34.47C535.4,15.47,550.86,0,569.87,0 s34.47,15.47,34.47,34.47v210.24C604.35,263.72,588.88,279.19,569.87,279.19z M569.87,15c-10.74,0-19.47,8.74-19.47,19.47v210.24 c0,10.74,8.74,19.47,19.47,19.47s19.47-8.74,19.47-19.47V34.47C589.35,23.74,580.61,15,569.87,15z" fill="#ffffff"/></g><g id="change1_2"><path d="M515.92,279.19c-19.01,0-34.47-15.46-34.47-34.47V34.47C481.45,15.47,496.91,0,515.92,0 s34.47,15.47,34.47,34.47v210.24C550.4,263.72,534.93,279.19,515.92,279.19z M515.92,15c-10.74,0-19.47,8.74-19.47,19.47v210.24 c0,10.74,8.74,19.47,19.47,19.47s19.47-8.74,19.47-19.47V34.47C535.4,23.74,526.66,15,515.92,15z" fill="#ffffff"/></g><g id="change1_5"><path d="M496.45,165.99h-334.6v-60.25h334.6V165.99z M176.85,150.99h304.6v-30.25h-304.6V150.99z" fill="#ffffff"/></g></svg>