<?xml version="1.0" encoding="UTF-8" standalone="no"?><svg xmlns="http://www.w3.org/2000/svg" xmlns:xlink="http://www.w3.org/1999/xlink" fill="#ffffff" height="439.3" preserveAspectRatio="xMidYMid meet" version="1" viewBox="0.0 0.0 439.3 439.3" width="439.3" zoomAndPan="magnify"><g id="change1_1"><path clip-rule="evenodd" d="M25.958,159.788l140.269,80.801l-19.615,11.277L20.954,179.494 C22.299,172.799,23.972,166.224,25.958,159.788L25.958,159.788z M18.176,197.488c-0.791,7.279-1.201,14.675-1.201,22.167 l92.629,53.491l19.995-11.497L18.176,197.488L18.176,197.488z M219.658,0C98.331,0,0,98.347,0,219.669 c0,121.314,98.32,219.652,219.641,219.666c121.322,0,219.655-98.347,219.655-219.666C439.296,98.364,340.968,0,219.658,0L219.658,0z M17.967,239.829c0.827,8.384,2.163,16.617,3.979,24.669l51.17,29.625l19.48-11.199L17.967,239.829L17.967,239.829z M183.236,230.811l19.62-11.282L39.988,125.743c-3.02,5.771-5.77,11.703-8.237,17.784L183.236,230.811L183.236,230.811z M219.647,209.615l171.158-98.572c-3.596-5.657-7.465-11.125-11.588-16.384l-159.559,92.22v0.011l-0.011-0.004l-0.008,0.004v-0.011 L60.077,94.659c-4.123,5.259-7.989,10.727-11.585,16.384L219.647,209.615L219.647,209.615z M48.29,327.972 c3.456,5.462,7.168,10.744,11.117,15.837l160.231-92.423v-0.012l0.008,0.006l0.011-0.006v0.012l160.231,92.423 c3.949-5.093,7.661-10.375,11.117-15.837l-171.359-98.524L48.29,327.972L48.29,327.972z M219.647,167.27L367.99,81.524 c-1.634-1.757-3.301-3.486-4.996-5.183c-3.1-3.096-6.299-6.091-9.59-8.984l-133.747,77.011v0.011l-0.011-0.005l-0.008,0.005v-0.011 L85.892,67.357c-3.29,2.892-6.49,5.888-9.59,8.984c-1.695,1.698-3.362,3.427-4.996,5.183L219.647,167.27L219.647,167.27z M70.529,356.967l149.118-85.994l149.118,85.994c-1.882,2.047-3.805,4.058-5.77,6.025c-2.987,2.984-6.065,5.875-9.232,8.668 l-134.105-77.426v-0.011l-0.011,0.005l-0.008-0.005v0.011L85.531,371.661c-3.164-2.793-6.242-5.684-9.229-8.668 C74.337,361.025,72.414,359.015,70.529,356.967L70.529,356.967z M309.694,261.648l111.426-64.16 c0.791,7.279,1.199,14.675,1.199,22.167l-92.627,53.491L309.694,261.648L309.694,261.648z M346.7,282.924l74.629-43.095 c-0.83,8.384-2.166,16.617-3.982,24.669l-51.17,29.625L346.7,282.924L346.7,282.924z M99.698,383.083l119.949-69.253l119.952,69.253 c-5.806,4.269-11.849,8.235-18.102,11.877l-101.839-58.799v-0.011l-0.011,0.006l-0.008-0.006v0.011L117.8,394.96 C111.544,391.318,105.504,387.351,99.698,383.083L99.698,383.083z M135.703,404.223l83.943-48.468l83.946,48.468 c-7.691,3.502-15.638,6.539-23.806,9.073l-60.129-34.824v-0.011l-0.011,0.006l-0.008-0.006v0.011l-60.129,34.824 C151.339,410.762,143.392,407.725,135.703,404.223L135.703,404.223z M183.313,419.113l36.334-21.043l36.336,21.043 c-11.075,2.003-22.464,3.106-34.093,3.234h-4.483C205.777,422.219,194.385,421.117,183.313,419.113L183.313,419.113z M219.647,124.785L100.111,55.947c5.82-4.256,11.874-8.208,18.141-11.834l101.387,58.539v0.011l0.008-0.005l0.011,0.005v-0.011 l101.387-58.539c6.266,3.627,12.321,7.578,18.141,11.834L219.647,124.785L219.647,124.785z M219.647,83.057L136.21,34.881 c7.713-3.489,15.688-6.503,23.884-9.018l59.545,34.483v0.011l0.008-0.006l0.011,0.006v-0.011l59.545-34.483 c8.193,2.515,16.168,5.529,23.883,9.018L219.647,83.057L219.647,83.057z M219.647,40.73l-35.623-20.634 c10.846-1.923,21.996-2.982,33.374-3.107h4.497c11.378,0.126,22.528,1.184,33.377,3.107L219.647,40.73L219.647,40.73z M56.108,303.901l-16.289,9.365c-4.216-8.091-7.906-16.501-11.017-25.187L56.108,303.901L56.108,303.901z M256.06,230.811 l-19.62-11.282l162.866-93.787c3.02,5.771,5.773,11.703,8.237,17.784L256.06,230.811L256.06,230.811z M273.065,240.588 l140.272-80.801c1.987,6.436,3.66,13.011,5.004,19.706l-125.659,72.372L273.065,240.588L273.065,240.588z M399.474,313.266 l-16.289-9.365l27.309-15.822C407.38,296.766,403.693,305.176,399.474,313.266z" fill="inherit" fill-rule="evenodd"/></g></svg>