<?xml version="1.0" encoding="UTF-8" standalone="no"?><!-- Generator: Adobe Illustrator 23.0.1, SVG Export Plug-In . SVG Version: 6.00 Build 0)  --><svg xmlns="http://www.w3.org/2000/svg" enable-background="new 0 0 404.4 347.9" fill="#000000" id="Layer_1" version="1.1" viewBox="0 0 404.4 347.9" x="0px" xml:space="preserve" y="0px">
<g id="change1_1"><path d="m397.8 119.4l-11-19.7c-0.7-1.3-18.1-33.1-24.5-43.7-8.3-13.9-10.3-16.2-21.2-28.6l-1.4-1.6c-4.3-4.9-17.7-18.1-18.2-18.6l-2.7-2.8c-3.8-3.9-9.4-5.3-14.6-3.8s-9.1 5.8-10.2 11.1l-1.7 8.3c-0.3 0.8-0.5 1.6-0.9 2.4l-0.3 0.8c-0.2 0.6-0.5 1.3-0.8 1.9v0.1l-0.3 0.7c-0.4 0.8-0.7 1.6-1.1 2.4l-0.3 0.7c-0.3 0.6-0.6 1.2-0.9 1.7-0.2 0.3-0.3 0.6-0.5 0.9-0.3 0.5-0.6 1.1-0.9 1.6l-0.5 0.8c-0.4 0.7-0.9 1.3-1.3 2-0.2 0.3-0.4 0.6-0.7 1s-0.6 0.8-0.9 1.2c-0.2 0.3-0.5 0.6-0.7 1-0.2 0.3-0.5 0.6-0.7 0.9l-0.8 0.9c-0.2 0.3-0.5 0.5-0.7 0.8l-0.9 1c-0.4 0.4-0.7 0.8-1.1 1.2l-0.6 0.6c-1.4 1.3-2.8 2.6-4.2 3.8l-0.7 0.6-1.2 0.9c-0.3 0.2-0.5 0.4-0.8 0.6l-0.1 0.1c-0.4 0.3-0.8 0.6-1.1 0.8 0 0-0.1 0.1-0.2 0.1-1 0.7-2.1 1.4-3.2 2.1l-0.5 0.3c-0.5 0.3-1 0.6-1.6 0.9l-0.4 0.2c-1.8 1-3.6 1.8-5.4 2.6l-0.2 0.1c-2.6 1.1-5.2 2-8 2.7h-0.1c-2.8 0.7-5.6 1.3-8.5 1.6-7.9 0.9-15.7 0.4-23.4-1.7l-3.2-10.7c-4.4-14.4-16.8-25.1-31.6-27.4-7-1.1-13.9 2.7-16.8 9.2l-17.3 39.2c0 0.1 0 0.1-0.1 0.2-0.6 1.6-1.2 3-1.4 3.4-0.3 0.5-0.7 1.2-2.6 5.7-0.1 0.1-0.1 0.3-0.2 0.4l-0.8 2.5c-0.9 2.3-1.7 4.6-2.6 7-1.1 3.2-2.2 6.6-3.9 10.2 0 0.1-0.1 0.2-0.1 0.3l-0.5 1.2c-0.4 1-0.8 1.9-1.2 2.9l-0.9 2.1c-0.3 0.8-0.7 1.6-1 2.3l-1.1 2.5c-0.3 0.7-0.6 1.4-0.9 2l-0.3 0.6c-0.3 0.6-0.6 1.2-0.9 1.9-0.4 0.8-0.7 1.5-1.1 2.3l-3.6 7.3-6.5 12.1c-1.9 3.6-3.9 6.8-6.2 10.4-0.9 1.4-1.8 2.9-2.7 4.3-0.4 0.7-0.9 1.3-1.3 2l-0.7 1c-0.6 0.9-1.2 1.8-1.7 2.6l-0.8 1.2c-0.6 0.9-1.2 1.8-1.8 2.6l-0.7 1c-2.1 3-4.2 6-6.4 8.9l-0.5 0.7c-0.7 0.9-1.4 1.8-2.1 2.7l-0.7 0.9c-0.7 0.9-1.4 1.8-2.2 2.8l-0.3 0.3c-2.4 3-4.9 6-7.4 8.9l-0.5 0.6c-0.8 0.9-1.5 1.8-2.3 2.7l-0.6 0.7-2.4 2.7c-8.1 8.9-16.7 17.4-25.7 25.3l-36.3 32c-16.4 14.4-20.5 37.7-10.7 60.7 3 7.2 7 13.4 12.2 19.1 9.1 10.1 21.8 15.8 37 16.5 1.1 0 2.1 0.1 3.2 0.1 12.5 0 25.5-3.4 36.9-9.8l202.4-112.7 31-16.9c2.6-1.3 42.8-21.5 54.6-31.9l0.8-0.7c12.1-10.6 14.6-12.8 18.9-23.7 3.1-7.9 3.8-21.1-4.4-33.1zm-119.3-62.9c0.2-0.2 0.4-0.3 0.6-0.5l0.2-0.2c1.7-1.4 3.3-2.8 5-4.5l0.6-0.6c0.4-0.4 0.9-0.9 1.3-1.4 0.2-0.2 0.4-0.5 0.6-0.7l0.3-0.3c0.3-0.3 0.6-0.7 0.9-1l0.1-0.1c0.2-0.2 0.3-0.4 0.5-0.6l0.4-0.4c0.3-0.3 0.6-0.7 0.9-1 0.3-0.4 0.6-0.7 0.9-1.2 0.3-0.4 0.6-0.9 1-1.4 0.2-0.3 0.5-0.7 0.7-1 0.5-0.8 1-1.5 1.5-2.3l0.5-0.9c0.4-0.6 0.7-1.2 1.1-1.9 0.2-0.3 0.4-0.7 0.6-1 0.4-0.7 0.7-1.3 1.1-2l0.1-0.2 0.3-0.6c0.5-0.9 0.9-1.8 1.3-2.8l0.3-0.8v-0.1c0.3-0.7 0.6-1.5 0.9-2.2l0.4-0.9c0.4-0.9 0.7-1.9 1-2.9 0-0.1 0-0.1 0.1-0.2 0-0.2 0.1-0.3 0.1-0.5l1.8-8.6c0.5-2.5 2.5-3.4 3.3-3.6s2.9-0.6 4.7 1.2l2.8 2.8c0.1 0.1 13.7 13.5 17.8 18.1l1.4 1.6c10.9 12.4 12.3 14 20.1 27.1 6.3 10.5 24.1 43.1 24.3 43.5l9.4 16.7c-7 3.9-23.8 13.2-46.4 25.8-25.3-8.3-43.8-25.9-54.9-52.1-7.4-17.6-9-33.4-9.2-37.1 0.1-0.1 0.2-0.1 0.3-0.2 0.4-0.3 0.9-0.6 1.3-1zm-103.3-21.2c1.1-2.4 3.6-3.8 6.2-3.4 11.1 1.7 20.4 9.8 23.7 20.5l1.2 3.8c-10.6-3.1-26.4-6.3-39-2.9l7.9-18zm-152.7 223.6l36.3-31.9c9.2-8.1 18.1-16.9 26.4-26.1 0.4-0.5 0.8-0.9 1.3-1.4 6.7 1.4 12.9 2 18.5 2 36.4 0 52.2-25.5 58.8-36.1l0.7-1.1c2.6-4.2 8.6-17.5 18.3-40.6 1.1-2.5-0.1-5.4-2.7-6.5-2.5-1.1-5.4 0.1-6.5 2.7-11.6 27.8-16 36.6-17.5 39.2l-0.7 1.1c-6.9 11.1-22.4 36.2-61.4 30.6 1.7-2 3.3-4 4.9-5.9l0.3-0.3c0.7-0.9 1.5-1.9 2.2-2.8l0.7-0.9c0.7-0.9 1.4-1.9 2.1-2.8l0.6-0.7c2.2-3 4.5-6.1 6.6-9.2l0.7-1 1.8-2.7 0.8-1.2 1.8-2.7 0.7-1c0.5-0.7 0.9-1.4 1.4-2.2 1-1.5 1.8-3 2.7-4.4 2.4-3.8 4.5-7.1 6.5-10.9l4.7-8.5 5.8-11.4c0.4-0.8 0.7-1.6 1.1-2.3 0.3-0.6 0.6-1.3 0.9-1.9l0.3-0.6c0.3-0.7 0.6-1.4 1-2.1l1.1-2.5c0.4-0.8 0.7-1.6 1-2.4l0.9-2.2 1.2-3 0.5-1.3c1.8-4 3.1-7.7 4.2-11 0.8-2.3 1.5-4.5 2.4-6.6 0-0.1 0.1-0.2 0.1-0.3l0.8-2.5c1.6-3.6 2-4.4 2.1-4.6 0.4-0.6 0.4-0.6 1.9-4.5l1.5-3.4c5.5-11.8 23.3-10.3 37.1-7.1-2 4.9-6.2 15.6-11.3 28-1 2.5 0.2 5.4 2.7 6.4 0.6 0.2 1.2 0.4 1.9 0.4 2 0 3.8-1.2 4.6-3.1 5.5-13.4 10-24.8 11.8-29.1 1.9 0.6 3.6 1.2 4.9 1.7 0.2 0.1 0.4 0.3 0.6 0.4s0.5 0.2 0.7 0.3c9.8 3.1 19.9 4.1 30 2.9 3.3-0.4 6.5-1 9.8-1.9h0.1c3.2-0.8 6.3-1.9 9.3-3.2l0.3-0.1c1.9-0.8 3.9-1.8 5.7-2.8 0.9 7.4 3.3 20.4 9.3 34.7 10.9 25.9 29.1 44.7 52.9 54.9-50.5 28.2-122.9 68.7-180.4 101.6-86.8 49.5-133.3 55.8-133.8 55.8h-0.1c-0.4-0.8-0.8-1.6-1.1-2.5-8-18.9-4.9-37.9 8.2-49.4zm370.6-110.3c-3.5 8.7-4.4 9.5-16.3 19.9l-0.8 0.7c-11 9.7-52.2 30.3-52.6 30.5-0.1 0-0.1 0.1-0.2 0.1l-31.1 17-202.5 112.6c-26.5 14.8-52.7 8.8-64.9-4.7-1.4-1.5-2.7-3.1-3.9-4.8 13.4-2.5 58.3-13.6 133.3-56.5 89.6-51.2 215.4-121.1 238-133.6 3.1 6.9 2.8 14.1 1 18.8z" fill="#ffffff"/></g>
</svg>